<svg xmlns:mydata="http://www.w3.org/2000/svg" mydata:contrastcolor="0a1021" mydata:template="Contrast" mydata:presentation="2.5" mydata:layouttype="undefined" mydata:specialfontid="undefined" mydata:id1="769" mydata:id2="769" mydata:companyname="Adpitchers" mydata:companytagline="" version="1.1" xmlns="http://www.w3.org/2000/svg" xmlns:xlink="http://www.w3.org/1999/xlink" viewBox="0 0 550 470" class="svg-primary-tile" width="459.1875" height="392.390625">
  <defs>
    <linearGradient x1="65" y1="235" x2="485" y2="235" gradientUnits="userSpaceOnUse" id="color-1438829850055231">
      <stop offset="0" stop-color="#4568dc"></stop>
      <stop offset="1" stop-color="#b06ab3"></stop>
    </linearGradient>
  </defs>
  <g fill="url(#color-1438829850055231)" fill-rule="nonzero" stroke="none" stroke-width="1" stroke-linecap="butt" stroke-linejoin="miter" stroke-miterlimit="10" stroke-dasharray="" stroke-dashoffset="0" font-family="none" font-weight="none" font-size="none" text-anchor="none" style="mix-blend-mode: normal">
    <g data-paper-data="{&quot;isGlobalGroup&quot;:true,&quot;bounds&quot;:{&quot;x&quot;:65,&quot;y&quot;:210.39935045634152,&quot;width&quot;:420,&quot;height&quot;:49.20129908731698}}">
      <g data-paper-data="{&quot;isPrimaryText&quot;:true}">
        <path d="M70.37356,243.05903h10.64469c0.01639,0 0.03196,-0.00779 0.04138,-0.0209c0.00942,-0.01311 0.01229,-0.03032 0.00738,-0.04589l-5.32234,-16.54065c-0.01352,-0.04261 -0.08399,-0.04261 -0.09751,0l-5.32234,16.54065c-0.00492,0.01557 -0.00205,0.03278 0.00738,0.04589c0.00942,0.01311 0.02499,0.0209 0.04138,0.0209zM84.17723,252.77774h-16.96266c-0.02213,0 -0.0422,0.01434 -0.04876,0.03565l-2.16335,6.71951c-0.00492,0.01557 -0.00246,0.03278 0.00738,0.04589c0.00942,0.01311 0.02499,0.0209 0.04138,0.0209h21.28937c0.01639,0 0.03155,-0.00779 0.04138,-0.0209c0.00983,-0.01311 0.01229,-0.03032 0.00738,-0.04589l-2.16335,-6.71951c-0.00697,-0.02131 -0.02663,-0.03565 -0.04876,-0.03565zM114.0094,210.39935c0,0 -17.35887,0 -17.35928,0h-15.79863c-0.01639,0 -0.03155,0.00779 -0.04138,0.0209c-0.00983,0.01311 -0.01229,0.03032 -0.00738,0.04589l15.79945,49.0979c0.00082,0.00246 0.00451,0.00205 0.00574,0.0041c0.00819,0.01721 0.02254,0.03114 0.04302,0.03155h17.35887c13.56439,0 24.59996,-11.03557 24.59996,-24.60037c-0.00041,-13.56439 -11.03557,-24.59996 -24.60037,-24.59996zM114.0094,249.67775h-7.49184v-29.35647h7.49184c8.09332,0 14.67803,6.58471 14.67803,14.67803c0,8.09332 -6.5843,14.67844 -14.67803,14.67844z" data-paper-data="{&quot;glyphName&quot;:&quot;&quot;,&quot;glyphIndex&quot;:0,&quot;firstGlyphOfWord&quot;:true,&quot;word&quot;:1}" id="path-id-718038697525444"></path>
        <path d="M186.83394,229.62303c0,-10.59921 -8.6231,-19.2223 -19.2223,-19.2223h-22.73571c-0.02827,0 -0.05122,0.02294 -0.05122,0.05122v49.09749c0,0.02827 0.02294,0.05122 0.05122,0.05122h9.81704c0.02827,0 0.05122,-0.02294 0.05122,-0.05122v-10.7041h12.86745c0.3245,0 0.65065,-0.00819 0.96941,-0.02458c3.43801,-0.17127 6.76376,-1.26237 9.6175,-3.15489c5.40716,-3.5679 8.63539,-9.56506 8.63539,-16.04283zM154.74419,220.3202h12.86745c5.12977,0 9.30283,4.17347 9.30283,9.30283c0,3.0164 -1.47297,5.85745 -3.94034,7.60001c-1.56597,1.11405 -3.42039,1.70282 -5.3625,1.70282h-12.86745z" data-paper-data="{&quot;glyphName&quot;:&quot;P&quot;,&quot;glyphIndex&quot;:1,&quot;word&quot;:1}" id="path-id-831435913489707"></path>
        <path d="M192.40332,259.59942h9.81581c0.02827,0 0.05122,-0.02294 0.05122,-0.05122v-49.09749c0,-0.02827 -0.02294,-0.05122 -0.05122,-0.05122h-9.81581c-0.02827,0 -0.05122,0.02294 -0.05122,0.05122v49.09749c0,0.02827 0.02294,0.05122 0.05122,0.05122z" data-paper-data="{&quot;glyphName&quot;:&quot;I&quot;,&quot;glyphIndex&quot;:2,&quot;word&quot;:1}" id="path-id-477933556281235"></path>
        <path d="M208.54613,220.32143h15.99243v39.22677c0,0.02827 0.02294,0.05122 0.05122,0.05122h9.8195c0.02827,0 0.05122,-0.02294 0.05122,-0.05122v-39.22677h15.99284c0.02827,0 0.05122,-0.02294 0.05122,-0.05122v-9.8195c0,-0.02827 -0.02294,-0.05122 -0.05122,-0.05122h-41.9072c-0.02827,0 -0.05122,0.02294 -0.05122,0.05122v9.8195c0,0.02827 0.02253,0.05122 0.05122,0.05122z" data-paper-data="{&quot;glyphName&quot;:&quot;T&quot;,&quot;glyphIndex&quot;:3,&quot;word&quot;:1}" id="path-id-571279201776028"></path>
        <path d="M276.40957,259.58794c6.29954,0 12.59908,-2.39772 17.39492,-7.19356c0.01967,-0.02008 0.01967,-0.05244 0,-0.07252l-6.94322,-6.94363c-0.01926,-0.01926 -0.05285,-0.01926 -0.07293,0c-5.72265,5.72306 -15.0349,5.72306 -20.75755,0c-2.77262,-2.77221 -4.29926,-6.4581 -4.29926,-10.37877c0,-3.92067 1.52705,-7.60657 4.29926,-10.37918c5.72265,-5.72306 15.0349,-5.72306 20.75755,0c0.02008,0.01926 0.05367,0.01926 0.07293,0l6.94322,-6.94363c0.01967,-0.02008 0.01967,-0.05244 0,-0.07252c-9.59169,-9.59169 -25.19816,-9.59169 -34.78985,0c-4.64629,4.64629 -7.20503,10.82374 -7.20503,17.39492c0,6.57119 2.55874,12.74863 7.20503,17.39492c4.79584,4.79625 11.09538,7.19397 17.39492,7.19397z" data-paper-data="{&quot;glyphName&quot;:&quot;C&quot;,&quot;glyphIndex&quot;:4,&quot;word&quot;:1}" id="path-id-586653199983550"></path>
        <path d="M299.38821,259.60065h9.81581c0.02827,0 0.05122,-0.02294 0.05122,-0.05122v-19.59024h22.17356v19.59024c0,0.02827 0.02294,0.05122 0.05122,0.05122h9.81581c0.02827,0 0.05122,-0.02294 0.05122,-0.05122v-49.09872c0,-0.02827 -0.02294,-0.05122 -0.05122,-0.05122h-9.81581c-0.02827,0 -0.05122,0.02294 -0.05122,0.05122v19.59024h-22.17356v-19.59024c0,-0.02827 -0.02294,-0.05122 -0.05122,-0.05122h-9.81581c-0.02827,0 -0.05122,0.02294 -0.05122,0.05122v49.09872c0,0.02827 0.02294,0.05122 0.05122,0.05122z" data-paper-data="{&quot;glyphName&quot;:&quot;H&quot;,&quot;glyphIndex&quot;:5,&quot;word&quot;:1}" id="path-id-737048428931379"></path>
        <path d="M347.61772,259.59942h41.90802c0.02827,0 0.05122,-0.02294 0.05122,-0.05122v-9.8195c0,-0.02827 -0.02294,-0.05122 -0.05122,-0.05122h-32.0369v-9.71707h22.22109c0.02827,0 0.05122,-0.02294 0.05122,-0.05122v-9.8195c0,-0.02827 -0.02294,-0.05122 -0.05122,-0.05122h-22.22109v-9.71707h32.0369c0.02827,0 0.05122,-0.02294 0.05122,-0.05122v-9.8195c0,-0.02827 -0.02294,-0.05122 -0.05122,-0.05122h-41.90802c-0.02827,0 -0.05122,0.02294 -0.05122,0.05122v49.09749c0,0.02827 0.02294,0.05122 0.05122,0.05122z" data-paper-data="{&quot;glyphName&quot;:&quot;E&quot;,&quot;glyphIndex&quot;:6,&quot;word&quot;:1}" id="path-id-909288933151071"></path>
        <path d="M395.84804,259.60065h9.81704c0.02827,0 0.05122,-0.02294 0.05122,-0.05122v-10.7041h12.86704c0.31426,0 0.62934,-0.0086 0.93868,-0.02376l6.65068,10.7549c0.00901,0.01516 0.02581,0.02417 0.04343,0.02417h11.53789c0.01844,0 0.03565,-0.01024 0.04466,-0.02622c0.0086,-0.01639 0.0086,-0.03606 -0.00123,-0.05162l-8.58622,-13.88644c5.38134,-3.57117 8.5936,-9.55236 8.5936,-16.01333c0,-10.59921 -8.6231,-19.2223 -19.2223,-19.2223h-22.7353c-0.02827,0 -0.05122,0.02294 -0.05122,0.05122v49.09749c0.00082,0.02827 0.02376,0.05122 0.05204,0.05122zM423.94584,237.22304c-1.56597,1.11405 -3.42039,1.70282 -5.3625,1.70282h-12.86704v-18.60567h12.86704c5.12977,0 9.30283,4.17347 9.30283,9.30283c0,3.01681 -1.47256,5.85786 -3.94034,7.60001z" data-paper-data="{&quot;glyphName&quot;:&quot;R&quot;,&quot;glyphIndex&quot;:7,&quot;word&quot;:1}" id="path-id-22898270457922"></path>
        <path d="M470.22036,249.68159h-12.46838c-2.68084,0 -4.8614,-2.18097 -4.8614,-4.8614c0,-0.02827 -0.02294,-0.05122 -0.05122,-0.05122h-9.81581c-0.02827,0 -0.05122,0.02294 -0.05122,0.05122c0,8.14945 6.63019,14.77964 14.77964,14.77964h12.46838c8.14986,0 14.77964,-6.63019 14.77964,-14.77964c0,-8.14945 -6.63019,-14.77964 -14.77964,-14.77964h-12.46838c-2.68084,0 -4.8614,-2.18097 -4.8614,-4.8614c0,-2.68043 2.18056,-4.8614 4.8614,-4.8614h12.46838c2.68084,0 4.8614,2.18097 4.8614,4.8614c0,0.02827 0.02294,0.05122 0.05122,0.05122h9.81581c0.02827,0 0.05122,-0.02294 0.05122,-0.05122c0,-8.14945 -6.63019,-14.77964 -14.77964,-14.77964h-12.46838c-8.14986,0 -14.77964,6.63019 -14.77964,14.77964c0,8.14945 6.63019,14.77964 14.77964,14.77964h12.46838c2.68084,0 4.8614,2.18097 4.8614,4.8614c0,2.68043 -2.18056,4.8614 -4.8614,4.8614z" data-paper-data="{&quot;glyphName&quot;:&quot;S&quot;,&quot;glyphIndex&quot;:8,&quot;lastGlyphOfWord&quot;:true,&quot;word&quot;:1}" id="path-id-952636907793176"></path>
      </g>
    </g>
  </g>
  <rect data-path-id="path-id-718038697525444" class="invisible-bbox" x="65" y="210" fill="transparent" width="74" height="49"></rect>
  <rect data-path-id="path-id-831435913489707" class="invisible-bbox" x="145" y="210" fill="transparent" width="42" height="49"></rect>
  <rect data-path-id="path-id-571279201776028" class="invisible-bbox" x="208" y="210" fill="transparent" width="42" height="49"></rect>
  <rect data-path-id="path-id-586653199983550" class="invisible-bbox" x="252" y="210" fill="transparent" width="42" height="49"></rect>
  <rect data-path-id="path-id-737048428931379" class="invisible-bbox" x="299" y="210" fill="transparent" width="42" height="49"></rect>
  <rect data-path-id="path-id-909288933151071" class="invisible-bbox" x="348" y="210" fill="transparent" width="42" height="49"></rect>
  <rect data-path-id="path-id-22898270457922" class="invisible-bbox" x="396" y="210" fill="transparent" width="42" height="49"></rect>
  <rect data-path-id="path-id-952636907793176" class="invisible-bbox" x="443" y="210" fill="transparent" width="42" height="49"></rect>
  <rect data-path-id="path-id-477933556281235" class="invisible-bbox" x="192" y="210" fill="transparent" width="10" height="49"></rect>
</svg>